<svg width="300" height="300" viewBox="0 0 300 300" fill="none" xmlns="http://www.w3.org/2000/svg">
    <g clip-path="url(#clip0_21_3)">
    <circle cx="150" cy="150" r="150" fill="#0B0B0B"/>
    <circle cx="150" cy="150" r="43" fill="#FF5353"/>
    <circle cx="150" cy="150" r="15" fill="#402828"/>
    <path d="M75 20.0962C49.3075 34.9298 28.5906 57.049 15.4691 83.6567C2.34763 110.264 -2.58907 140.166 1.28327 169.579C5.15561 198.992 17.6631 226.597 37.224 248.902C56.785 271.207 82.5208 287.21 111.177 294.889L150 150L75 20.0962Z" fill="#76AFF2"/>
    <path d="M88.4531 74.1113C83.9772 74.2415 81.2428 74.3066 80.25 74.3066C79.0781 74.3066 76.6611 74.2415 72.999 74.1113C72.9014 74.4694 72.9014 74.8519 72.999 75.2588C74.6917 75.3564 75.8636 75.5029 76.5146 75.6982C77.1657 75.8936 77.4912 76.2923 77.4912 76.8945C77.4912 77.1875 77.3936 77.4235 77.1982 77.6025L63.3555 90.957H61.6465C61.6465 86.5137 61.7441 82.0622 61.9395 77.6025C61.972 76.3656 64.6901 75.5843 70.0938 75.2588C70.1914 74.9495 70.1914 74.5671 70.0938 74.1113C65.8294 74.2415 62.501 74.3066 60.1084 74.3066C58.1064 74.3066 55.2663 74.2415 51.5879 74.1113C51.4577 74.4043 51.4577 74.7868 51.5879 75.2588C55.3314 75.6169 57.2194 76.3981 57.252 77.6025C57.4147 81.4274 57.4961 85.9766 57.4961 91.25C57.4961 96.4095 57.3984 101.545 57.2031 106.655C57.1706 107.86 55.2826 108.641 51.5391 108.999C51.4089 109.259 51.4089 109.642 51.5391 110.146C54.306 110.049 57.1462 110 60.0596 110C63.5264 110 66.8548 110.049 70.0449 110.146C70.1751 109.886 70.1751 109.504 70.0449 108.999C64.6413 108.674 61.9232 107.892 61.8906 106.655C61.7279 101.577 61.6465 97.0443 61.6465 93.0566L63.5996 93.0078L75.4893 105.361C76.3682 106.289 76.8076 106.948 76.8076 107.339C76.8076 107.909 76.5472 108.324 76.0264 108.584C75.5055 108.828 74.4639 108.966 72.9014 108.999C72.7712 109.504 72.7712 109.886 72.9014 110.146V110.195C76.4984 110.065 79.5827 110 82.1543 110C85.9141 110 88.9414 110.049 91.2363 110.146C91.3503 109.788 91.3503 109.406 91.2363 108.999C87.444 108.869 84.4004 107.656 82.1055 105.361L67.042 90.1025L80.2012 77.6025C81.0638 77.0003 82.0241 76.5283 83.082 76.1865C84.1562 75.8285 85.0352 75.6087 85.7188 75.5273C86.4023 75.446 87.3138 75.3564 88.4531 75.2588C88.5508 74.8519 88.5508 74.4694 88.4531 74.1113ZM89.7471 76.2109C85.8408 76.4714 83.0413 77.1875 81.3486 78.3594L70.1426 89.0527L85.499 104.604C87.7939 106.899 90.0807 108.096 92.3594 108.193C92.6198 109.268 92.6198 110.269 92.3594 111.196C87.9486 110.936 81.2266 110.936 72.1934 111.196C71.8678 110.269 71.819 109.268 72.0469 108.193C74.5534 108.128 75.8066 107.843 75.8066 107.339C75.8066 107.176 72.3398 103.498 65.4062 96.3037C65.4062 99.3311 65.4876 102.765 65.6504 106.606C65.6504 106.704 65.6911 106.802 65.7725 106.899C65.8538 106.997 65.9678 107.078 66.1143 107.144C66.277 107.209 66.4398 107.282 66.6025 107.363C66.7653 107.428 66.985 107.493 67.2617 107.559C67.5547 107.624 67.7988 107.681 67.9941 107.729C68.1895 107.778 68.4499 107.827 68.7754 107.876C69.1172 107.925 69.3857 107.965 69.5811 107.998C69.7926 108.031 70.0693 108.063 70.4111 108.096C70.7692 108.128 71.0133 108.161 71.1436 108.193C71.3877 109.268 71.3389 110.269 70.9971 111.196C64.9912 111.066 61.3454 111.001 60.0596 111.001C59.1807 111.001 56.1126 111.066 50.8555 111.196C50.4486 110.073 50.4486 109.023 50.8555 108.047C54.3874 107.689 56.1696 107.209 56.2021 106.606C56.3975 102.537 56.4951 97.4186 56.4951 91.25C56.4951 86.0091 56.4137 81.4762 56.251 77.6514C56.2184 77.0492 54.4036 76.569 50.8066 76.2109C50.5299 75.1367 50.5625 74.0869 50.9043 73.0615C52.3366 73.0615 54.2734 73.1022 56.7148 73.1836C59.1725 73.265 60.8815 73.3057 61.8418 73.3057C62.5417 73.3057 63.8438 73.2894 65.748 73.2568C67.6523 73.2243 69.3369 73.208 70.8018 73.208C71.0947 74.1357 71.111 75.1367 70.8506 76.2109C67.4489 76.5365 65.7318 77.0166 65.6992 77.6514C65.5365 81.0205 65.4388 84.3327 65.4062 87.5879L76.4902 76.8945C76.4902 76.6341 75.1068 76.4062 72.3398 76.2109C72.0143 75.1042 72.0306 74.0706 72.3887 73.1104C78.2969 73.3708 84.083 73.4033 89.7471 73.208C90.0075 74.1357 90.0075 75.1367 89.7471 76.2109ZM61.5977 157.25C61.5977 153.246 61.679 148.697 61.8418 143.603C61.8743 142.366 64.5924 141.584 69.9961 141.259C70.0938 140.95 70.0938 140.567 69.9961 140.111C65.7318 140.242 62.4033 140.307 60.0107 140.307C58.0088 140.307 55.1686 140.242 51.4902 140.111C51.36 140.404 51.36 140.787 51.4902 141.259C55.2337 141.617 57.1217 142.398 57.1543 143.603C57.3171 147.427 57.3984 151.977 57.3984 157.25C57.3984 162.41 57.3008 167.545 57.1055 172.655C57.0729 173.86 55.1849 174.641 51.4414 174.999C51.3438 175.406 51.3438 175.788 51.4414 176.146C54.5827 176.049 61.8825 176 73.3408 176C77.2471 176 80.1768 175.268 82.1299 173.803C84.083 172.338 85.9059 169.872 87.5986 166.405C87.4684 166.129 87.1836 165.909 86.7441 165.746C86.1094 166.918 85.4095 167.96 84.6445 168.871C83.8796 169.783 82.8704 170.702 81.6172 171.63C80.3639 172.541 78.8014 173.249 76.9297 173.754C75.0742 174.258 72.9665 174.511 70.6064 174.511H61.793C61.6628 168.798 61.5977 163.044 61.5977 157.25ZM65.3086 159.057C65.3086 163.516 65.3737 168.334 65.5039 173.51H70.5576C77.7842 173.51 83.0332 170.507 86.3047 164.501C87.6719 165.006 88.5345 165.64 88.8926 166.405C86.5651 170.263 85.1979 173.795 84.791 177.001H65.0889C58.6598 177.001 53.8828 177.05 50.7578 177.147C50.416 176.09 50.3997 175.056 50.709 174.047C54.2734 173.689 56.0719 173.209 56.1045 172.606C56.2998 167.496 56.3975 162.377 56.3975 157.25C56.3975 152.009 56.3161 147.476 56.1533 143.651C56.1208 143.049 54.306 142.569 50.709 142.211C50.4323 141.137 50.4648 140.087 50.8066 139.062C53.6387 139.224 57.2845 139.306 61.7441 139.306C62.4115 139.306 63.7461 139.289 65.748 139.257C67.75 139.224 69.4997 139.208 70.9971 139.208C71.3063 140.136 71.3226 141.137 71.0459 142.211C67.4489 142.569 65.6341 143.049 65.6016 143.651C65.4062 147.72 65.3086 152.855 65.3086 159.057ZM65.5527 204.305C67.8802 204.305 70.0205 204.63 71.9736 205.281C73.9268 205.932 75.6846 206.355 77.2471 206.551C76.3844 209.578 76.3519 212.841 77.1494 216.341C76.3193 217.041 75.3672 217.448 74.293 217.562C74.1628 217.252 73.9268 216.609 73.585 215.633C73.2594 214.64 72.9421 213.826 72.6328 213.191C72.3398 212.557 71.9248 211.832 71.3877 211.019C70.8669 210.205 70.167 209.562 69.2881 209.09C68.4255 208.602 67.4326 208.268 66.3096 208.089C64.6657 208.235 63.3962 208.74 62.501 209.603C61.6058 210.465 61.1582 211.58 61.1582 212.947C61.1582 214.347 61.5163 215.503 62.2324 216.414C62.9486 217.309 63.8763 217.985 65.0156 218.44C66.1712 218.88 67.4408 219.271 68.8242 219.612C70.2077 219.938 71.583 220.345 72.9502 220.833C74.3174 221.305 75.5706 221.932 76.71 222.713C77.8656 223.478 78.8014 224.625 79.5176 226.155C80.2337 227.685 80.5918 229.549 80.5918 231.746C80.5918 234.415 79.8187 236.71 78.2725 238.631C76.7262 240.551 74.9033 241.927 72.8037 242.757C70.7041 243.587 68.5557 244.002 66.3584 244.002C61.5244 244.002 56.7393 242.936 52.0029 240.804C52.1006 238.704 52.1494 237.418 52.1494 236.946C52.1494 234.31 51.8971 231.478 51.3926 228.45C52.8574 227.75 54.4932 227.718 56.2998 228.353C56.902 232.047 58.0658 234.879 59.791 236.849C61.5326 238.818 63.4368 239.917 65.5039 240.145C67.4408 240.014 68.93 239.388 69.9717 238.265C71.0296 237.125 71.5586 235.685 71.5586 233.943C71.5586 232.479 71.2168 231.242 70.5332 230.232C69.8496 229.207 68.9463 228.418 67.8232 227.864C66.7002 227.295 65.4795 226.782 64.1611 226.326C62.859 225.87 61.5407 225.39 60.2061 224.886C58.8714 224.365 57.6426 223.746 56.5195 223.03C55.4128 222.314 54.5176 221.313 53.834 220.027C53.1504 218.742 52.8086 217.179 52.8086 215.34C52.8086 213.68 53.069 212.19 53.5898 210.872C54.127 209.554 54.8187 208.496 55.665 207.698C56.5277 206.901 57.5286 206.233 58.668 205.696C59.8236 205.159 60.9629 204.793 62.0859 204.598C63.2253 204.402 64.3809 204.305 65.5527 204.305ZM65.5527 205.306C64.1855 205.306 62.859 205.468 61.5732 205.794C60.2874 206.103 59.0342 206.616 57.8135 207.332C56.609 208.048 55.6406 209.098 54.9082 210.481C54.1758 211.865 53.8096 213.484 53.8096 215.34C53.8096 216.984 54.1514 218.4 54.835 219.588C55.5186 220.76 56.4137 221.671 57.5205 222.322C58.6436 222.973 59.8724 223.551 61.207 224.056C62.5417 224.544 63.86 225.04 65.1621 225.545C66.4805 226.049 67.7012 226.619 68.8242 227.254C69.9473 227.889 70.8506 228.776 71.5342 229.915C72.2178 231.038 72.5596 232.381 72.5596 233.943C72.5596 236.108 71.8678 237.858 70.4844 239.192C69.1009 240.527 67.1396 241.194 64.6006 241.194C62.1592 241.194 59.8887 240.177 57.7891 238.143C55.6895 236.108 54.306 233.064 53.6387 229.012C53.3132 228.8 52.9307 228.8 52.4912 229.012C52.9307 231.567 53.1504 234.212 53.1504 236.946C53.1504 237.711 53.1178 238.794 53.0527 240.193C57.0892 242.065 60.9385 243.001 64.6006 243.001C67.6279 243.001 70.4274 242.106 72.999 240.315C75.5706 238.509 76.8564 235.986 76.8564 232.747C76.8564 230.908 76.4984 229.354 75.7822 228.084C75.0661 226.798 74.1302 225.797 72.9746 225.081C71.819 224.365 70.5495 223.746 69.166 223.226C67.7826 222.705 66.4072 222.216 65.04 221.761C63.6729 221.289 62.4115 220.768 61.2559 220.198C60.1165 219.629 59.1888 218.823 58.4727 217.781C57.7565 216.723 57.3984 215.446 57.3984 213.948C57.3984 211.849 58.1064 210.172 59.5225 208.919C60.9385 207.666 62.9486 207.039 65.5527 207.039C70.0775 207.039 73.1943 210.172 74.9033 216.438C75.4079 216.52 75.7578 216.406 75.9531 216.097C75.416 212.125 74.236 209.334 72.4131 207.723C70.6064 206.111 68.3197 205.306 65.5527 205.306Z" fill="black"/>
    </g>
    <defs>
    <clipPath id="clip0_21_3">
    <rect width="300" height="300" fill="white"/>
    </clipPath>
    </defs>
    </svg>
    